<svg width="1591" height="415" viewBox="0 0 1591 415" fill="none" xmlns="http://www.w3.org/2000/svg">
<g clip-path="url(#clip0_509_623)">
<g opacity="0.5">
<path opacity="0.52" fill-rule="evenodd" clip-rule="evenodd" d="M919.052 110.375C923.992 110.375 932.41 111.032 938.081 110.218C942.822 109.54 947.303 107.994 952.096 107.41C961.715 106.23 971.188 104.278 980.807 103.15C1002.74 100.676 1024.91 99.392 1046.77 96.2705C1054.62 95.143 1062.37 93.2533 1070.36 93.2533C1075.47 93.2533 1079.57 94.6523 1084.66 96.1556C1087.84 97.1034 1091.13 97.5818 1094.45 97.5754C1100.31 97.7406 1106.15 96.6477 1111.55 94.3704C1113.9 93.4099 1116.08 92.0214 1118.58 91.4055C1120.62 90.9044 1122.39 90.9252 1124.42 90.1318C1127.23 89.0878 1127.92 88.1169 1131.3 87.929C1134.34 87.7525 1137.36 87.3653 1140.34 86.7702C1148.09 85.2459 1155.84 86.2899 1163.65 85.5905C1174.71 84.5378 1185.84 84.2935 1196.94 84.8597C1214.51 85.9036 1232.19 87.4592 1249.61 89.5889C1257.18 90.5654 1264.7 91.9595 1272.12 93.7649C1282.89 96.3227 1294.18 97.9408 1304.82 101C1314.95 103.912 1325.3 106.22 1335.29 109.508C1338.8 110.677 1341.81 112.15 1345.12 113.59C1349.62 115.563 1354.52 116.503 1358.89 118.81C1367.24 123.258 1374.86 129.542 1382.22 135.222C1388 139.729 1393.11 145.037 1397.39 150.986C1400.16 154.796 1401 158.607 1402.42 162.877C1404.08 168.251 1404.88 173.852 1404.8 179.476C1404.65 190.595 1403.23 201.181 1394.06 209.668C1386.45 216.715 1380.48 226.195 1371.41 231.864C1367.01 234.609 1360.82 236.384 1355.56 237.449C1347.51 239.088 1339.59 241.239 1331.76 243.608C1321.92 246.573 1311.92 248.776 1302.14 251.731C1295.29 253.819 1288.77 256.878 1282.14 259.477C1273.62 262.818 1265.18 266.91 1257.08 270.961C1248.72 275.137 1240.59 280.127 1231.84 283.489C1221.64 287.435 1211.36 290.797 1200.74 293.783C1187.59 297.478 1172.68 298.741 1158.97 300.349C1145.69 301.905 1132.21 301.519 1118.87 302.625C1102.01 304.014 1084.83 307.772 1068.74 312.512C1057.86 315.717 1047.11 319.235 1036.37 322.68C1029.42 324.904 1022.29 326.679 1015.4 329.028C1008.5 331.377 1001.93 334.446 994.906 336.607C967.908 344.959 940.827 354.198 912.827 359.408C885.914 364.408 858.185 364.899 831.062 368.584C815.229 370.735 798.906 370.985 782.947 372.05C766.686 373.094 750.435 372.833 734.143 372.823C704.9 372.823 674.467 373.105 645.704 367.269C631.626 364.408 617.934 360.274 603.929 357.017C591.271 354.052 577.819 353.572 564.785 353.572C554.55 353.572 544.43 354.616 534.195 354.616C527.114 354.616 520.127 355.66 513.046 355.764C505.171 355.91 497.245 355.764 489.359 355.764C460.461 355.764 431.991 353.864 403.197 351.766C391.312 350.889 379.521 349.594 367.688 348.55C359.563 347.84 352.022 347.506 343.939 345.324C340.339 344.271 336.685 343.41 332.994 342.746C323.26 341.138 313.996 337.755 304.795 334.665C295.594 331.575 285.38 330.875 275.97 328.078C269.15 326.052 262.905 322.722 256.764 319.506C251.417 316.709 248.137 313.18 243.343 309.829C233.745 303.126 224.544 296.904 216.388 288.751C211.479 283.854 206.33 277.935 203.855 271.681C203.155 269.907 201.505 266.858 201.766 265.01C202.132 261.743 205.432 258.558 207.792 256.293C211.06 253.323 214.575 250.637 218.299 248.265C221.986 245.77 226.017 243.89 228.743 240.529C235.009 232.772 242.08 226.038 249.631 219.19C265.391 204.814 289.119 195.585 310.487 190.595C325.109 187.181 339.981 184.634 354.706 181.585C371.417 178.119 388.221 175.968 405.098 173.306C419.824 170.978 434.341 168.546 448.962 165.81C461.244 163.514 473.422 160.497 485.871 159.15C497.913 157.845 510.164 155.402 522.31 155.12C530.665 154.922 539.02 155.12 547.375 155.193C554.279 155.256 561.036 154.076 567.991 154.149C573.318 154.149 578.644 154.149 583.981 154.149H609.621C604.66 154.149 599.271 153.606 594.404 154.243C591.584 154.609 588.534 154.88 585.767 155.433C584.357 155.705 583.25 156.477 581.913 156.853C580.148 157.333 578.195 157.386 576.482 158.095C572.305 159.828 569.057 162.543 564.576 163.785C558.31 165.529 551.939 167.46 545.307 168.024C535.814 168.828 526.299 169.214 516.869 170.258C512.826 170.833 508.752 171.158 504.67 171.229C498.842 171.177 493.495 172.221 487.751 172.335C483.239 172.419 478.644 171.876 474.174 172.534C468.722 173.327 463.803 172.962 458.31 173.306C449.955 173.828 441.902 176.532 433.787 178.328C424.661 180.42 415.65 182.985 406.79 186.012C398.122 188.904 389.244 190.657 380.847 194.123C373.457 197.225 365.793 199.63 357.954 201.306C353.307 202.35 349.046 204.073 344.377 204.835C338.424 205.795 333.067 207.727 327.145 208.812C322.508 209.658 318.289 211.736 313.965 213.375C309.203 215.17 304.221 216.444 299.417 218.177C291.085 221.105 283.176 225.121 275.897 230.12C268.367 235.277 262.017 242.366 255.249 248.317C248.93 253.799 244.373 261.028 242.153 269.092C240.576 275.012 237.474 281.129 237.62 287.32C237.735 291.893 241.902 295.766 245.975 298.115C249.401 300.099 252.377 302.719 255.876 304.63C259.197 306.436 262.884 307.657 266.257 309.401C272.519 312.62 278.436 316.468 283.918 320.884C289.046 325.123 294.706 327.952 300.304 331.575C304.649 334.404 309.307 334.644 314.09 336.649C318.028 338.309 322.142 338.998 326.341 339.854C337.568 342.109 348.983 342.297 360.169 344.656C365.62 345.805 370.863 347.203 376.451 347.297C383.062 347.402 389.537 349.385 396.169 349.479C408.565 349.605 421.328 350.106 433.485 348.435C441.84 347.318 450.195 349.479 458.487 349.479C466.038 349.479 473.725 349.96 481.109 348.623C488.493 347.287 497.412 348.394 505.057 348.394C511.124 348.394 516.973 348.623 522.905 347.558C531.438 346.024 540.44 348.133 549.015 346.514C556.58 344.99 564.274 344.193 571.991 344.134C582.376 344.034 592.752 344.798 603.01 346.42C615.271 348.508 627.448 350.941 639.741 352.851C649.965 354.438 660.691 355.42 670.696 357.894C672.785 358.416 674.874 359.418 677.025 359.846C678.895 360.201 680.911 360.013 682.801 360.316C689.934 361.475 697.026 361.84 704.211 362.915C709.349 363.688 714.54 363.959 719.741 364.262C721.32 364.447 722.883 364.744 724.42 365.15C727.616 365.745 730.811 365.223 734.028 365.327C739.762 365.515 745.276 366.475 751.052 366.455C760.879 366.402 770.498 366.653 780.211 365.515C788.765 364.471 796.765 362.936 805.161 361.12C812.827 359.46 820.744 358.886 828.336 357.142C838.425 354.824 848.566 353.352 858.822 351.786C875.271 349.27 891.919 347.736 908.357 344.875C917.193 343.341 925.642 340.324 934.582 339.008C945.582 337.244 956.431 334.637 967.031 331.21C971.7 329.769 976.358 329.215 980.984 327.493C984.942 326.021 989.036 324.925 993.026 323.568C995.595 322.691 997.684 321.219 1000.13 320.154C1002.9 318.943 1005.85 318.243 1008.65 317.022C1015.19 314.221 1021.87 311.754 1028.66 309.63C1047.31 303.941 1064.89 294.378 1084.6 291.757C1093.5 290.648 1102.48 290.261 1111.44 290.598C1114.33 290.682 1116.8 291.162 1119.6 291.507C1123.53 291.997 1126.58 291.319 1130.47 290.891C1133.52 290.546 1136.54 290.786 1139.58 290.682C1143.49 290.557 1147.33 289.868 1151.24 289.638C1164.13 288.943 1176.95 287.306 1189.6 284.742C1194.92 283.593 1200.25 282.654 1205.45 281.098C1212.06 279.094 1218.06 276.599 1224.46 274.176C1228.62 272.581 1232.59 270.544 1236.32 268.1C1240.24 265.553 1244.67 263.538 1248.18 260.5C1251.01 258.076 1254.04 255.884 1257.22 253.944C1261.16 251.532 1265.71 251.042 1269.89 249.069C1276.72 245.843 1284.51 244.298 1291.59 241.594C1302.27 237.532 1314.71 236.896 1324.85 231.373C1328.94 229.149 1332.53 226.466 1336.7 224.305C1342.6 221.199 1348.14 217.46 1353.22 213.155C1358.14 208.761 1362.57 203.862 1366.46 198.54C1370.16 193.737 1375.68 187.484 1376.22 181.408C1376.83 175.929 1376.05 170.386 1373.95 165.29C1371.85 160.194 1368.49 155.709 1364.2 152.249C1352.71 142.592 1339.24 136.516 1325.69 129.605C1312.95 123.111 1299.02 120.115 1285.35 115.762C1280.97 114.266 1276.48 113.093 1271.93 112.254C1264.92 111.095 1259.13 112.254 1252.2 113.298C1243.7 114.676 1235.36 118.518 1227.77 122.12C1224.15 123.842 1220.62 125.607 1217.09 127.454C1213.56 129.302 1209.64 131.63 1205.42 131.797C1202.2 132.028 1198.97 131.732 1195.85 130.92C1193.91 130.25 1191.9 129.791 1189.86 129.553C1178.89 128.874 1171.57 133.593 1162.3 137.905C1149.54 143.824 1135.38 143.125 1122.06 139.272C1109.07 135.556 1099.19 125.168 1087.51 119.155C1081.5 116.023 1075.54 115.449 1069.37 113.079C1061.7 110.124 1054.99 109.352 1046.71 109.331C1042.33 109.331 1038.06 108.934 1033.89 110.375C1028.43 112.181 1022.66 113.653 1017.35 115.783C1010.68 118.455 1003.65 125.648 996.786 119.781C994.77 118.058 994.551 117.161 991.856 116.827C989.832 116.618 987.792 116.618 985.767 116.827C980.546 117.338 977.778 121.295 972.065 121.138C970.252 121.077 968.461 120.724 966.76 120.094C963.47 118.988 960.587 119.395 957.183 118.789C952.681 117.996 949.506 117.641 944.399 118.956C942.321 119.507 940.195 119.857 938.049 120C932.995 120.313 929.036 119.604 924.911 117.098C921.955 115.313 920.504 113.841 916.817 113.454C916.796 113.1 916.733 112.807 919.052 110.375Z" fill="url(#paint0_radial_509_623)"/>
<path opacity="0.52" fill-rule="evenodd" clip-rule="evenodd" d="M866.539 407.535C874.101 405.594 880.461 403.422 888.022 403.245C892.294 403.14 895.333 402.065 899.27 400.342C911.02 395.227 922.999 391.844 934.863 387.303C943.009 384.171 951.062 381.697 958.174 375.694C964.733 370.15 973.119 366.601 980.764 363.437C992.785 358.468 1004.27 351.953 1016.27 346.734C1028.27 341.514 1040.6 342.693 1052.92 340.668C1065.24 338.643 1077.46 334.404 1089.97 333.684C1095.82 333.36 1101.79 333.684 1107.66 333.757C1113.53 333.83 1118.35 332.577 1123.99 331.22C1134.23 328.732 1144.3 325.594 1154.14 321.824C1158.53 320.154 1162.84 318.243 1167.28 316.719C1174.85 314.119 1182.3 314.453 1189.95 313.19C1196.61 312.094 1202.89 312.386 1209.61 312.146C1218.08 311.875 1227.01 309.014 1235.34 307.156C1243.29 305.35 1250.94 303.617 1258.67 300.506C1262.23 299.075 1265.3 296.925 1268.68 295.014C1272.06 293.104 1275.75 292.102 1279.22 290.358C1291.88 284.011 1304.61 278.144 1317.61 273.007C1324.31 270.366 1331.26 268.675 1337.9 265.856C1348.55 261.335 1359.1 255.489 1370.19 252.66C1377.69 250.739 1385.4 248.933 1392.94 247.304C1398.98 245.999 1404.8 243.838 1410.79 242.324C1417.15 240.727 1423.49 236.927 1429.5 233.972C1435.69 230.934 1442.24 226.936 1448.65 224.942C1459.78 221.507 1468.28 210.577 1476.12 201.139C1483.02 192.839 1489.69 183.151 1492.16 171.605C1494.25 161.634 1495.52 151.111 1493.41 140.88C1491.09 129.605 1486.51 114.78 1479.21 106.919C1473.03 100.269 1466.04 95.6544 1459.6 89.4949C1453.96 84.1079 1448.34 79.8276 1442.34 75.1087C1429.81 65.2744 1417.41 55.6488 1404.68 46.2843C1398.63 41.8369 1391.87 38.3708 1385.54 34.4559C1381.69 32.0756 1377.57 31.2404 1373.75 28.8079C1367.77 25.0182 1361.31 22.544 1355.2 19.0153C1350.31 16.207 1345.98 12.6261 1341.23 9.61939C1332.7 4.28461 1325.77 -4.4118 1317.75 -10.6235C1312.68 -14.7191 1307.03 -18.0307 1300.98 -20.4474C1291.12 -24.2162 1281.09 -28.3713 1271.04 -31.2632C1262.54 -33.8891 1254.34 -37.417 1246.59 -41.7866C1240.23 -45.2317 1233.55 -47.351 1227.23 -51.1094C1219.7 -55.5776 1212.42 -61.0273 1204.25 -63.8878C1196.09 -66.7483 1186.93 -67.5626 1178.49 -68.1264C1161.52 -69.2643 1144.55 -73.2002 1127.59 -75.0376C1106.41 -77.2131 1085.39 -80.6821 1064.63 -85.4253C1053.06 -88.1187 1041.56 -91.1463 1030.03 -94.0904C1022.31 -96.0635 1014.03 -97.3372 1006.42 -99.801C998.446 -102.38 990.759 -105.021 982.581 -106.754C974.581 -108.424 966.696 -110.794 958.738 -112.882C945.411 -116.4 931.834 -119.021 918.414 -121.965C912.026 -123.239 905.493 -123.628 898.999 -123.124C894.686 -122.852 890.581 -120.712 886.529 -119.073C883.325 -117.873 880.232 -116.396 877.286 -114.657C876.127 -113.937 874.748 -113.529 873.641 -112.851C872.137 -111.901 872.346 -111.201 871.344 -109.917C868.68 -106.503 862.393 -105.167 858.163 -104.092C855.636 -103.455 852.941 -103.361 850.424 -102.588C846.693 -101.44 842.89 -100.536 839.041 -99.8845C832.562 -98.8504 826.008 -98.3649 819.448 -98.4333C809.15 -98.4333 798.946 -97.619 788.691 -96.6794C782.8 -96.1366 776.962 -94.9255 771.082 -94.3931C762.163 -93.5788 753.275 -94.0695 744.356 -93.0568C733.035 -91.7623 721.202 -91.4073 710.111 -88.3902C702.142 -86.2291 694.299 -83.0241 686.226 -81.4268C684.638 -81.1031 677.15 -80.4872 676.826 -78.5558C680.252 -77.0525 683.656 -76.9168 687.27 -76.8019C696.461 -76.5096 705.871 -75.5178 715.04 -74.6304C726.529 -73.5029 738.174 -73.0958 749.589 -71.0495C761.912 -68.8259 773.965 -65.934 786.414 -64.7856C796.795 -63.8147 807.155 -63.1883 817.557 -64.1279C826.957 -64.9735 835.114 -64.201 844.492 -63.0839C854.717 -61.8416 864.743 -60.0564 874.884 -58.0415C888.21 -55.4002 900.994 -50.7962 914.163 -47.2675C933.62 -42.0476 952.054 -43.5196 971.532 -47.8208C978.751 -49.3471 985.872 -51.3029 992.858 -53.6776C998.54 -55.6716 1004.5 -59.8476 1010.28 -60.8602C1020.72 -62.6976 1030.4 -55.5254 1040.74 -55.0556C1046.66 -54.7842 1052.57 -55.4002 1058.5 -54.8364C1062.22 -54.4815 1066.32 -53.9386 1069.84 -52.2995C1072.26 -51.1825 1074.22 -49.1676 1076.53 -47.8313C1085.93 -42.4965 1096.53 -45.4718 1106.24 -47.5389C1111.46 -48.6665 1116.61 -50.1698 1121.9 -50.9945C1128.11 -51.955 1133.39 -50.9423 1139.54 -50.8588C1147.28 -50.7649 1155.12 -48.5098 1162.84 -47.5807C1172.24 -46.4323 1181.55 -43.9372 1190.93 -42.5069C1196.98 -41.5882 1202.03 -40.0953 1207.3 -36.243C1214.94 -30.7098 1222.17 -24.6338 1229.67 -18.8501C1244.47 -7.43935 1262.25 -3.74364 1278.41 4.11759C1282.07 5.90281 1285.47 7.95947 1289 9.98479C1294.28 13.0019 1299.79 14.7663 1305.28 17.1048C1315.93 21.6357 1326.33 25.7281 1336.53 31.6371C1351.86 40.511 1367.1 49.625 1382.36 58.666C1398.49 68.2393 1412.5 81.6337 1428.63 91.2592C1441.72 99.0891 1455.16 107.733 1466.77 118.184C1471.67 122.6 1474.82 132.184 1476.67 138.896C1479.13 147.812 1478.96 157.072 1478.76 166.353C1478.62 172.534 1474.58 176.689 1473.91 182.66C1473.69 184.748 1474.3 186.774 1473.74 188.778C1472.45 193.372 1467.32 197.85 1464.34 200.596C1455.66 208.593 1445.15 214.93 1435.76 221.747C1431.18 225.078 1426.3 227.176 1421.5 229.932C1414.94 233.711 1408.88 238.284 1401.74 240.372C1391.22 243.452 1380.58 244.736 1370.17 248.473C1364.57 250.478 1358.97 251.397 1353.46 253.85C1345.63 257.316 1337.63 258.986 1329.44 260.834C1316.06 263.872 1304.38 271.817 1291.43 276.317C1290.07 276.81 1288.79 277.469 1287.59 278.279C1285.59 279.605 1283.96 281.829 1281.89 283.155C1279.21 284.888 1276.22 285.942 1273.45 287.445C1265.93 291.475 1257.68 293.96 1249.18 294.753C1246.47 295.056 1245.61 295.745 1243.08 296.925C1238.67 299.013 1232.37 300.057 1227.71 300.527C1215.67 301.769 1203.78 302.949 1191.66 303.314C1186.26 303.471 1180.48 304.181 1175.55 306.947C1170.62 309.714 1165.54 313.065 1160.2 315.028C1153.93 317.345 1147.54 317.752 1141.29 320.738C1134.93 323.715 1128.26 325.957 1121.39 327.42C1112.23 329.486 1102.88 330.623 1093.5 330.813C1086.23 330.965 1078.97 331.557 1071.77 332.587C1060.06 334.394 1048.35 335.834 1036.71 337.734C1030.45 338.778 1024.43 339.112 1018.18 340.981C1011.29 343.069 1004.34 343.351 997.798 346.869C985.714 353.384 972.482 356.15 960.388 362.759C954.754 366.052 949.324 369.681 944.127 373.627C937.923 378.085 931.97 382.678 925.036 385.465C917.547 388.483 910.153 391.291 903.176 395.905C892.419 402.963 881.37 412.87 868.889 414.802C866.372 415.188 861.683 414.979 859.49 413.319C858.111 412.275 858.101 413.382 858.122 411.356C858.184 409.936 860.785 407.901 866.539 407.535Z" fill="url(#paint1_radial_509_623)"/>
<path opacity="0.52" fill-rule="evenodd" clip-rule="evenodd" d="M1266.96 -139.598C1270.02 -144.891 1274.68 -146.373 1280.63 -145.862C1286.32 -145.361 1292.02 -141.153 1297.07 -138.794C1302.96 -136.038 1308.37 -132.53 1314.15 -129.659C1325.8 -123.622 1338.09 -118.916 1350.79 -115.628C1365.97 -111.776 1380.1 -113.926 1395.4 -114.302C1402.05 -114.469 1408.97 -114.761 1415.53 -113.258C1420.94 -112.005 1425.8 -109.604 1430.87 -107.495C1438.01 -104.541 1445.6 -102.818 1452.92 -100.333C1461.42 -97.4416 1468.78 -91.898 1476.52 -87.4401C1483.16 -83.6191 1489.06 -80.1322 1493.48 -73.8683C1496.32 -69.7759 1500.01 -66.2576 1502.46 -61.9146C1503.58 -59.5507 1504.86 -57.2691 1506.3 -55.087C1510.48 -49.5329 1513.48 -44.5531 1519.14 -40.3354C1530.78 -31.6599 1540.12 -21.5436 1554.58 -16.9814C1562.24 -14.5385 1570.35 -12.7428 1578.15 -10.6339C1582.44 -9.4751 1586.72 -8.41023 1590.98 -7.29317V164.13C1589.07 167.315 1587 170.402 1584.78 173.379C1583.88 174.969 1582.82 176.457 1581.6 177.816C1580.45 178.86 1579.3 179.017 1578.23 180.385C1576.48 182.577 1574.99 185.083 1572.92 187.139C1571.41 188.643 1569.79 189.54 1568.39 191.148C1567.14 192.568 1566.15 194.134 1564.84 195.543C1562.42 198.143 1560.93 201.076 1558.86 203.895C1556.53 207.132 1555.45 210.723 1552.89 213.886C1550.49 216.815 1547.57 219.275 1544.27 221.142C1539.62 223.867 1534.53 226.414 1530.18 229.546C1525.82 232.678 1518.79 237.835 1514.71 240.936C1510.62 244.037 1505.02 246.344 1500.43 249.027C1497.05 251.095 1493.92 253.547 1491.1 256.335C1485.34 261.899 1480.66 268.163 1474.3 273.112C1457.67 285.994 1437.32 295.756 1415.74 295.672C1404.92 295.672 1394.19 295.328 1383.56 296.716C1376.19 297.698 1369.21 300.36 1361.72 300.318C1355.67 300.318 1348 299.128 1342.16 300.861C1335.94 302.661 1329.91 305.056 1324.15 308.012C1325.43 307.501 1326.12 306.457 1327.28 305.83C1328.86 305.135 1330.49 304.559 1332.15 304.108C1334.55 303.231 1336.5 301.237 1338.79 300.422C1341.33 299.514 1343.83 298.773 1346.5 298.021C1347.61 297.609 1348.69 297.114 1349.73 296.539C1350.8 296.153 1351.91 295.87 1353.04 295.693C1357.9 294.367 1362.44 291.194 1367.87 291.037C1373.76 290.87 1379.79 289.053 1385.73 288.615C1394.58 287.957 1403.29 289.252 1412.1 287.79C1415.48 287.237 1418.36 287.122 1421.58 285.921C1423.75 285.094 1425.85 284.085 1427.85 282.904C1432.19 280.43 1434.84 276.912 1438.39 273.508C1439.96 271.995 1441.53 270.491 1443.1 268.936C1444.43 267.589 1445.32 265.699 1446.65 264.457C1448.43 262.766 1450.77 261.92 1452.65 260.177C1455.89 257.441 1459.51 255.187 1463.4 253.485C1470.28 250.091 1476.84 246.079 1482.99 241.5C1486.01 239.276 1488.61 236.864 1491.54 234.547C1493.43 233.054 1495.23 232.198 1496.77 230.298C1498.55 228.105 1500.14 225.715 1501.89 223.48C1506.38 217.791 1507.47 210.953 1511.06 204.856C1512.63 202.173 1514.56 199.688 1516.22 197.047C1518.18 193.611 1519.87 190.03 1521.28 186.335C1524.25 179.466 1526.32 172.826 1531.29 167.022C1536.69 160.758 1544.26 156.509 1549.65 150.172C1554.05 145.078 1557.13 138.984 1558.61 132.424C1559.71 127.381 1558.85 121.483 1558.85 116.357C1558.95 105.328 1557.86 94.32 1555.61 83.5234C1553.06 72.0395 1551.17 58.1544 1542.26 49.4058C1535.99 43.215 1527.73 40.5319 1519.74 37.2121C1514.05 34.8422 1506.5 31.7937 1501.99 27.6282C1493.4 19.6417 1484.78 11.6552 1476.72 3.08408C1470.64 -3.599 1464.2 -9.93884 1457.41 -15.9061C1451.87 -20.6353 1446.03 -24.6756 1440.2 -29.0603C1434.98 -33.0379 1430.27 -37.4122 1425.24 -41.6404C1417.86 -47.8103 1410.69 -54.2831 1402.55 -59.5761C1392.63 -66.0384 1379.99 -68.4082 1368.45 -70.5589C1347.42 -74.4947 1326.68 -79.5476 1305.79 -83.9428C1305.46 -84.0159 1302.76 -78.2531 1302.44 -78.3157C1301.81 -82.0218 1299.65 -85.822 1297.5 -88.86C1295.6 -91.543 1293.64 -94.7585 1291.23 -97.0553C1288.82 -99.352 1286.28 -101.043 1284.03 -103.601C1279.92 -108.299 1275.77 -112.423 1271.34 -116.808C1268.86 -119.141 1266.98 -122.043 1265.87 -125.264C1264.56 -129.638 1264.6 -135.537 1266.96 -139.598Z" fill="url(#paint2_radial_509_623)"/>
<path opacity="0.52" fill-rule="evenodd" clip-rule="evenodd" d="M675.595 -68.0846C655.031 -63.1987 634.237 -61.3718 613.38 -57.9684C605.025 -56.6007 595.344 -56.1309 587.5 -52.1742C582.822 -49.8253 578.101 -47.6329 573.474 -44.9916C568.759 -42.2616 563.814 -39.949 558.696 -38.0804C555.062 -36.7754 551.323 -35.6166 547.636 -34.51C542.414 -32.944 537.735 -29.6763 532.712 -27.5361C528.942 -25.9179 524.889 -25.4482 521.067 -24.0492C516.461 -22.3371 511.991 -19.8732 507.354 -18.3281C497.568 -15.0918 487.626 -12.0642 477.725 -9.17238C463.302 -4.91291 449.161 1.41367 434.8 6.00722C421.338 10.3084 408.45 17.4284 394.873 21.1868C379.719 25.3627 364.983 32.5976 351.072 41.0226C343.604 45.543 336.262 50.0217 328.367 53.3625C318.278 57.6324 307.751 60.7853 297.881 65.7755C289.756 69.8784 281.871 73.7725 274.706 79.9842C267.918 85.8723 260.461 89.6306 253.422 94.8923C240.638 104.434 227.072 111.44 214.936 122.36C208.732 127.945 203.562 134.272 196.795 139.064C189.045 144.503 180.419 147.906 173.056 154.254C162.017 163.754 155.594 178.61 148.105 191.837C146.34 194.716 144.746 197.696 143.333 200.763C141.484 205.117 140.555 209.741 138.32 213.876C135.75 218.615 133.63 222.969 130.236 226.915C126.669 230.909 123.63 235.344 121.192 240.111C113.369 256.095 117.975 276.296 119.353 293.49C119.698 297.927 120.085 302.051 120.555 306.446C120.951 310.11 120.074 313.817 121.265 317.293C124.398 326.303 134.299 331.658 140.899 335.751C146.476 339.196 152.074 340.501 157.954 342.892C163.468 345.136 168.722 347.506 174.424 349.051C181.735 351.014 188.69 354.052 195.709 357.079C203.218 360.305 211.009 362.748 218.602 365.713C230.915 370.505 242.622 376.602 255.458 379.076C262.435 380.413 269.129 382.448 276.22 382.95C283.312 383.451 290.173 382.595 297.108 382.95C320.68 384.265 343.322 394.026 366.508 398.609C379.667 401.198 392.221 403.318 405.557 403.266C419.469 403.266 433.265 406.011 447.135 406.21C455.03 406.324 463.636 404.884 471.448 406.21C475.333 406.878 479.5 408.955 483.208 410.5C484.858 411.2 487.949 411.544 488.962 413.434C484.785 413.131 480.482 413.674 476.263 413.434C471.521 413.131 466.696 410.782 461.944 410.48C459.502 410.371 457.063 410.766 454.779 411.638C452.785 412.275 450.811 411.638 448.816 412.286C443.051 414.092 436.743 413.403 430.654 413.403C419.302 413.403 408.586 411.962 397.234 411.962C390.967 411.962 384.325 412.797 378.111 412.035C374.518 411.597 370.8 409.947 367.333 408.673C363.866 407.4 360.43 407.327 356.973 406.502C351.813 405.26 346.591 406.356 341.38 405.051C337.202 404.007 332.805 405.301 328.555 404.445C322.706 403.266 317.181 398.86 311.573 398.954C305.056 399.069 299.04 397.471 292.534 397.503C286.497 397.503 280.471 397.44 274.435 397.503C271.542 397.503 271.03 397.346 268.67 395.697C264.085 392.481 259.134 388.744 253.954 387.71C250.247 386.969 246.435 387.512 242.675 387.418C236.414 387.315 230.196 386.367 224.189 384.599C213.045 381.091 201.568 375.819 190.988 370.39C184.137 366.883 178.152 361.798 170.779 359.522C168.419 358.792 166.006 358.896 163.677 358.228C160.356 357.257 157.411 355.242 154.037 354.449C148.617 353.185 143.594 351.003 138.205 349.438C130.017 347.057 122.883 342.349 114.956 339.28C108.868 336.91 100.46 333.579 97.0244 326.668C95.5623 323.714 94.9356 320.404 93.7241 317.335C91.4786 311.656 87.3324 306.436 83.3637 302.448C81.1601 300.234 79.1863 299.065 77.3377 296.34C75.9069 294.252 74.403 292.467 72.8468 290.525C69.8389 286.767 68.5335 282.57 66.9043 277.841C65.6132 274.774 65.3888 271.362 66.2671 268.153C67.1966 264.446 69.463 258.569 71.6353 255.75C73.0765 253.881 74.6849 253.662 75.6875 251.167C76.1006 249.835 76.3702 248.463 76.4917 247.074C77.0375 243.749 77.4072 240.396 77.5988 237.031C78.4343 228.679 81.1079 220.672 83.9591 213.176C85.0035 210.577 86.7371 207.956 87.3011 205.231C88.0635 201.515 85.7137 197.255 84.5231 194.05C82.7165 189.699 81.5824 185.098 81.1601 180.405C80.6797 172.054 83.322 161.102 88.0844 154.88C90.946 151.142 93.4944 145.839 97.0244 142.968C101.202 139.596 105.317 137.915 109.891 135.838C113.797 134.063 118.037 133.029 121.839 130.879C127.98 127.423 130.821 118.351 132.283 110.897C134.883 97.9095 135.844 81.665 144.095 71.8098C152.032 62.3512 162.758 57.1209 172.826 51.974C177.724 49.4789 181.515 47.3805 185.359 42.9017C187.155 40.8138 189.233 39.2896 191.04 37.2016C192.847 35.1136 194.226 32.5976 196.085 30.5827C198.669 27.8912 201.425 25.3699 204.335 23.0347C208.513 19.5999 213.996 18.6499 218.455 15.8833C219.792 15.0481 220.983 14.0772 222.33 13.2943C223.91 13.0634 225.375 12.3315 226.508 11.2063C227.568 9.72293 228.745 8.32652 230.027 7.03032C234.33 3.04228 239.824 0.860352 244.544 -2.28206C249.265 -5.42445 253.944 -9.58997 259.009 -11.3961C263.834 -13.15 268.69 -13.7555 273.63 -14.8308C276.764 -15.5198 279.479 -17.5034 282.247 -19.2364C286.706 -22.0239 291.176 -23.8926 295.824 -26.1372C300.983 -28.6219 304.053 -31.5868 307.97 -35.9402C318.821 -48.0087 332.356 -53.2287 345.944 -59.4195C352.21 -62.2905 357.223 -65.8505 362.863 -70.0891C369.411 -75.0271 376.659 -78.5349 383.364 -83.1389C393.808 -90.3216 403.124 -98.7987 414.393 -104.238C422.007 -107.881 429.37 -111.859 437.307 -114.396C454.017 -119.752 471.49 -122.278 488.639 -124.898C503.375 -127.164 517.882 -128.177 532.67 -129.168C546.978 -130.118 561.224 -131.81 575.563 -131.945C606.038 -132.238 638.362 -128.208 665.903 -111.254C672.012 -107.485 677.662 -102.536 678.968 -93.725C679.772 -88.6199 680.534 -76.1755 675.595 -68.0846Z" fill="url(#paint3_radial_509_623)"/>
</g>
</g>
<defs>
<radialGradient id="paint0_radial_509_623" cx="0" cy="0" r="1" gradientUnits="userSpaceOnUse" gradientTransform="translate(796.127 423.605) rotate(180) scale(479.708 580.225)">
<stop stop-color="#B5EFD9"/>
<stop offset="0.18" stop-color="#B2EBD9"/>
<stop offset="0.37" stop-color="#AADFD8"/>
<stop offset="0.56" stop-color="#9BCAD6"/>
<stop offset="0.74" stop-color="#87AED5"/>
<stop offset="0.93" stop-color="#6E89D2"/>
<stop offset="1" stop-color="#637AD1"/>
</radialGradient>
<radialGradient id="paint1_radial_509_623" cx="0" cy="0" r="1" gradientUnits="userSpaceOnUse" gradientTransform="translate(796.127 423.605) rotate(180) scale(479.708 580.225)">
<stop stop-color="#B5EFD9"/>
<stop offset="0.18" stop-color="#B2EBD9"/>
<stop offset="0.37" stop-color="#AADFD8"/>
<stop offset="0.56" stop-color="#9BCAD6"/>
<stop offset="0.74" stop-color="#87AED5"/>
<stop offset="0.93" stop-color="#6E89D2"/>
<stop offset="1" stop-color="#637AD1"/>
</radialGradient>
<radialGradient id="paint2_radial_509_623" cx="0" cy="0" r="1" gradientUnits="userSpaceOnUse" gradientTransform="translate(796.127 423.605) rotate(180) scale(479.719 580.237)">
<stop stop-color="#B5EFD9"/>
<stop offset="0.18" stop-color="#B2EBD9"/>
<stop offset="0.37" stop-color="#AADFD8"/>
<stop offset="0.56" stop-color="#9BCAD6"/>
<stop offset="0.74" stop-color="#87AED5"/>
<stop offset="0.93" stop-color="#6E89D2"/>
<stop offset="1" stop-color="#637AD1"/>
</radialGradient>
<radialGradient id="paint3_radial_509_623" cx="0" cy="0" r="1" gradientUnits="userSpaceOnUse" gradientTransform="translate(796.127 423.605) rotate(180) scale(479.708 580.225)">
<stop stop-color="#B5EFD9"/>
<stop offset="0.18" stop-color="#B2EBD9"/>
<stop offset="0.37" stop-color="#AADFD8"/>
<stop offset="0.56" stop-color="#9BCAD6"/>
<stop offset="0.74" stop-color="#87AED5"/>
<stop offset="0.93" stop-color="#6E89D2"/>
<stop offset="1" stop-color="#637AD1"/>
</radialGradient>
<clipPath id="clip0_509_623">
<rect width="1591" height="415" fill="white" transform="matrix(-1 0 0 1 1591 0)"/>
</clipPath>
</defs>
</svg>
