<svg width="16" height="16" viewBox="0 0 16 16" fill="none" xmlns="http://www.w3.org/2000/svg">
<path fill-rule="evenodd" clip-rule="evenodd" d="M9 0L12.6549 3.09414C13.0723 3.44745 13.1174 4.06436 12.7557 4.47204C12.394 4.87971 11.7624 4.92378 11.3451 4.57046L11 4.27833V14.8376C11 15.3771 10.5523 15.8144 9.99999 15.8144C9.44771 15.8144 9 15.3771 9 14.8376V0ZM6.00001 0.185556C6.55229 0.185556 7 0.622887 7 1.16236V16L3.34508 12.9059C2.92773 12.5525 2.88262 11.9356 3.24433 11.528C3.60603 11.1203 4.23759 11.0762 4.65494 11.4295L5.00001 11.7217V1.16236C5.00001 0.622887 5.44772 0.185556 6.00001 0.185556Z" fill="#7C86A0"/>
</svg>
